<svg width="945" height="720" xmlns="http://www.w3.org/2000/svg" xmlns:xlink="http://www.w3.org/1999/xlink" overflow="hidden"><defs><clipPath id="clip0"><path d="M0 0 945 0 945 720 0 720Z" fill-rule="evenodd" clip-rule="evenodd"/></clipPath></defs><g clip-path="url(#clip0)"><rect x="0" y="0" width="944.833" height="720" fill="#FFFFFF" transform="scale(1.00018 1)"/><path d="M0 19.6455C-4.66203e-15 8.79561 8.79561 0 19.6455-2.33101e-15L273.303 0C284.153-4.66203e-15 292.948 8.79561 292.948 19.6455L292.948 256.354C292.948 267.204 284.153 276 273.303 276L19.6455 276C8.79561 276 2.33101e-15 267.204 2.33101e-15 256.354Z" stroke="#EB586F" stroke-width="1.99968" stroke-miterlimit="8" fill="#FFFFFF" fill-rule="evenodd" transform="matrix(1.00018 0 -0 1 636 438)"/><text font-family="Rubik,Rubik_MSFontService,sans-serif" font-weight="700" font-size="21" transform="matrix(1 0 0 0.999824 696.997 486)">D<tspan font-size="17" x="15.3361" y="0">ATA</tspan><tspan x="55.3431" y="0">C</tspan><tspan font-size="17" x="70.3458" y="0">OLLECTION</tspan><tspan x="9.83508" y="26.0046">W</tspan><tspan font-size="17" x="27.6716" y="26.0046">ORKING</tspan><tspan x="97.8506" y="26.0046">G</tspan><tspan font-size="17" x="113.353" y="26.0046">ROUP</tspan></text><path d="M0 7.72078C-1.94119e-15 3.45671 3.45671 0 7.72077 0L236.236 0C240.5 -9.70594e-16 243.957 3.45671 243.957 7.72078L243.957 68.2792C243.957 72.5433 240.5 76 236.236 76L7.72077 76C3.45671 76 0 72.5433 0 68.2792Z" fill="#EB586F" fill-rule="evenodd" transform="matrix(1.00018 0 -0 1 660 576)"/><text fill="#FFFFFF" font-family="Montserrat,Montserrat_MSFontService,sans-serif" font-weight="800" font-size="13" transform="matrix(1 0 0 0.999824 765.047 604)">WG7<tspan font-weight="400" x="-71.2659" y="29.0051">Large</tspan><tspan font-weight="400" x="-29.5919" y="29.0051">scale</tspan><tspan font-weight="400" x="7.41461" y="29.0051">data </tspan><tspan font-weight="400" x="40.9205" y="29.0051">collection</tspan></text><path d="M0 19.6456C-4.66203e-15 8.79562 8.79561 0 19.6455-2.33102e-15L273.303 0C284.153-4.66203e-15 292.948 8.79562 292.948 19.6456L292.948 256.355C292.948 267.205 284.153 276 273.303 276L19.6455 276C8.79561 276 2.33101e-15 267.205 2.33101e-15 256.355Z" stroke="#EB586F" stroke-width="1.99968" stroke-miterlimit="8" fill="#FFFFFF" fill-rule="evenodd" transform="matrix(1.00018 0 -0 1 16 438)"/><text font-family="Rubik,Rubik_MSFontService,sans-serif" font-weight="700" font-size="21" transform="matrix(1 0 0 0.999824 39.1441 499)">M<tspan font-size="17" x="17.6698" y="0">ETHODS</tspan><tspan x="92.683" y="0">W</tspan><tspan font-size="17" x="110.52" y="0">ORKING</tspan><tspan x="180.699" y="0">G</tspan><tspan font-size="17" x="196.201" y="0">ROUP</tspan></text><path d="M0 7.72078C-1.94119e-15 3.45671 3.45671 0 7.72077 0L236.236 0C240.5 -9.70594e-16 243.957 3.45671 243.957 7.72078L243.957 68.2792C243.957 72.5433 240.5 76 236.236 76L7.72077 76C3.45671 76 0 72.5433 0 68.2792Z" fill="#EB586F" fill-rule="evenodd" transform="matrix(1.00018 0 -0 1 41 620)"/><text fill="#FFFFFF" font-family="Montserrat,Montserrat_MSFontService,sans-serif" font-weight="800" font-size="13" transform="matrix(1 0 0 0.999824 145.53 647)">WG2<tspan font-weight="400" x="-47.255" y="30.0053">Statistical </tspan><tspan font-weight="400" x="21.0904" y="30.0053">methods</tspan></text><path d="M0 7.72078C-1.94119e-15 3.45671 3.45671 0 7.72077 0L236.236 0C240.5 -9.70594e-16 243.957 3.45671 243.957 7.72078L243.957 68.2792C243.957 72.5433 240.5 76 236.236 76L7.72077 76C3.45671 76 0 72.5433 0 68.2792Z" fill="#EB586F" fill-rule="evenodd" transform="matrix(1.00018 0 -0 1 41 530)"/><text fill="#FFFFFF" font-family="Montserrat,Montserrat_MSFontService,sans-serif" font-weight="800" font-size="13" transform="matrix(1 0 0 0.999824 146.867 558)">WG1<tspan font-weight="400" x="-77.6804" y="30.0053">Neuroarchitectual</tspan><tspan font-weight="400" x="47.3417" y="30.0053">mapping</tspan></text><path d="M0 15.4461C-1.89743e-15 6.91543 6.91543 0 15.446 0L461.47 0C470-3.79486e-15 476.916 6.91543 476.916 15.4461L476.916 201.554C476.916 210.085 470 217 461.47 217L15.446 217C6.91543 217 0 210.085 0 201.554Z" stroke="#EB586F" stroke-width="1.99968" stroke-miterlimit="8" fill="#FFFFFF" fill-rule="evenodd" transform="matrix(1.00018 0 -0 1 234 11)"/><text font-family="Rubik,Rubik_MSFontService,sans-serif" font-weight="700" font-size="21" transform="matrix(1 0 0 0.999824 258.046 52)">B<tspan font-size="17" x="15.0027" y="0">EHAVIOURAL</tspan><tspan font-size="17" x="132.19" y="0">AND</tspan><tspan x="173.697" y="0">C</tspan><tspan font-size="17" x="188.7" y="0">LINICAL</tspan><tspan x="261.546" y="0">W</tspan><tspan font-size="17" x="279.383" y="0">ORKING</tspan><tspan x="349.562" y="0">G</tspan><tspan font-size="17" x="365.064" y="0">ROUPS</tspan></text><path d="M0 6.60334C-7.79657e-16 2.95642 2.95641 0 6.60333 0L189.362 0C193.009 -7.79658e-16 195.965 2.95642 195.965 6.60334L195.965 58.3967C195.965 62.0436 193.009 65 189.362 65L6.60333 65C2.95641 65 0 62.0436 0 58.3967Z" fill="#EB586F" fill-rule="evenodd" transform="matrix(1.00018 0 -0 1 490 75)"/><text fill="#FFFFFF" font-family="Montserrat,Montserrat_MSFontService,sans-serif" font-weight="800" font-size="13" transform="matrix(1 0 0 0.999824 570.377 103)">WG4<tspan font-weight="400" x="-31.1722" y="16.0028">Metacognition</tspan></text><path d="M0 6.60334C-7.79657e-16 2.95642 2.95641 0 6.60333 0L189.362 0C193.009 -7.79658e-16 195.965 2.95642 195.965 6.60334L195.965 58.3967C195.965 62.0436 193.009 65 189.362 65L6.60333 65C2.95641 65 0 62.0436 0 58.3967Z" fill="#EB586F" fill-rule="evenodd" transform="matrix(1.00018 0 -0 1 490 151)"/><path d="M0 6.50176C-7.83634e-16 2.91094 2.91093-1.56727e-15 6.50175-1.56727e-15L190.464 0C194.054-1.56727e-15 196.965 2.91094 196.965 6.50176L196.965 57.4982C196.965 61.0891 194.054 64 190.464 64L6.50175 64C2.91093 64 0 61.0891 0 57.4982Z" fill="#EB586F" fill-rule="evenodd" transform="matrix(1.00018 0 -0 1 261 152)"/><path d="M0 6.60344C-7.83634e-16 2.95646 2.95645 -7.83637e-16 6.60342 -7.83637e-16L190.362 0C194.009 -7.83637e-16 196.965 2.95646 196.965 6.60344L196.965 58.3966C196.965 62.0435 194.009 65 190.362 65L6.60342 65C2.95645 65 0 62.0435 7.83634e-16 58.3966Z" fill="#EB586F" fill-rule="evenodd" transform="matrix(1.00018 0 -0 1 261 75)"/><text fill="#FFFFFF" font-family="Montserrat,Montserrat_MSFontService,sans-serif" font-weight="800" font-size="13" transform="matrix(1 0 0 0.999824 342.123 102)">WG3<tspan font-weight="400" x="-55.5098" y="16.0028">Conscious</tspan><tspan font-weight="400" x="16.5029" y="16.0028">perception</tspan><tspan x="-0.083313" y="71.0125">WG5</tspan><tspan font-weight="400" x="-31.0088" y="86.0152">Consciousness</tspan><tspan font-weight="400" x="62.5077" y="86.0152">, </tspan><tspan font-weight="400" x="-45.4247" y="101.018">Learning &amp; Memory</tspan><tspan x="228.587" y="71.0125">WG6</tspan><tspan font-weight="400" x="187.247" y="87.0154">Clinical</tspan><tspan font-weight="400" x="239.423" y="87.0154">measures</tspan><tspan font-weight="400" x="189.667" y="103.018">of </tspan><tspan font-weight="400" x="206.003" y="103.018">consciousness</tspan></text><path d="M0 11.5001 203.771 11.5001 203.771 0 252.955 23.0001 203.771 46 203.771 34.4999 0 34.4999Z" fill="#FFFFFF" fill-rule="evenodd" transform="matrix(1.00018 0 -0 1 346 561)"/><path d="M-1.99963 9.50044 201.771 9.50044 201.771-3.14255 257.676 23.0001 201.771 49.1425 201.771 36.4996-1.99963 36.4996ZM0.399927 34.1 204.171 34.1 204.171 45.3715 252.011 23.0001 204.171 0.628511 204.171 11.9 0.399927 11.9ZM1.19978 12.6998 204.97 12.6998 204.97 1.88553 250.123 23.0001 204.97 44.1145 204.97 33.3001 1.19978 33.3001ZM1.99963 32.5003 205.77 32.5003 205.77 42.8575 248.235 23.0001 205.77 3.14255 205.77 13.4997 1.99963 13.4997Z" fill="#EB586F" transform="matrix(1.00018 0 -0 1 346 561)"/><rect x="0" y="0" width="188.967" height="24" fill="#FFFFFF" transform="matrix(1.00018 0 -0 1 347 569)"/><text font-family="Rubik,Rubik_MSFontService,sans-serif" font-weight="700" font-size="13" transform="matrix(1 0 0 0.999824 356.047 588)">MRI <tspan x="32.8391" y="0">S</tspan><tspan font-size="11" x="43.0076" y="0">EQUENCE</tspan><tspan x="105.819" y="0">D</tspan><tspan font-size="11" x="116.821" y="0">ESIGN</tspan></text><path d="M0 11.4195 170.827 11.4195 170.827 0 219.668 22.8389 170.827 45.6778 170.827 34.2584 0 34.2584Z" fill="#FFFFFF" fill-rule="evenodd" transform="matrix(0.59566 -0.803237 0.803278 0.59569 145.018 405.953)"/><path d="M-2.00013 9.41933 168.827 9.41933 168.827-3.14332 224.389 22.8389 168.827 48.8211 168.827 36.2585-2.00013 36.2585ZM0.400025 33.8583 171.227 33.8583 171.227 45.0492 218.723 22.8389 171.227 0.628663 171.227 11.8195 0.400025 11.8195ZM1.20008 12.6195 172.028 12.6195 172.028 1.88599 216.835 22.8389 172.028 43.7918 172.028 33.0583 1.20008 33.0583ZM2.00013 32.2582 172.828 32.2582 172.828 42.5345 214.946 22.8389 172.828 3.14332 172.828 13.4196 2.00013 13.4196Z" fill="#EB586F" transform="matrix(0.59566 -0.803237 0.803278 0.59569 145.018 405.953)"/><rect x="0" y="0" width="155.53" height="24.2726" fill="#FFFFFF" transform="matrix(0.59566 -0.803237 0.803278 0.59569 151.57 410.407)"/><text font-family="Rubik,Rubik_MSFontService,sans-serif" font-weight="700" font-size="13" transform="matrix(0.595592 -0.803004 0.803429 0.595487 168.6 419)">B<tspan font-size="11" x="9.7991" y="-0.22047">ASE</tspan><tspan x="33.7593" y="0.18285">A</tspan><tspan font-size="11" x="43.6176" y="0.0421104">NALYSIS</tspan><tspan x="93.3818" y="-0.023674">S</tspan><tspan font-size="11" x="102.141" y="0.0325813">CRIPTS</tspan></text><path d="M0 11.4195 170.827 11.4195 170.827 0 219.668 22.8389 170.827 45.6778 170.827 34.2584 0 34.2584Z" fill="#FFFFFF" fill-rule="evenodd" transform="matrix(-0.59566 -0.803237 -0.803278 0.59569 840.195 405.953)"/><path d="M-2.00013 9.41933 168.827 9.41933 168.827-3.14332 224.389 22.8389 168.827 48.8211 168.827 36.2585-2.00013 36.2585ZM0.400025 33.8583 171.227 33.8583 171.227 45.0492 218.723 22.8389 171.227 0.628663 171.227 11.8195 0.400025 11.8195ZM1.20008 12.6195 172.028 12.6195 172.028 1.88599 216.835 22.8389 172.028 43.7918 172.028 33.0583 1.20008 33.0583ZM2.00013 32.2582 172.828 32.2582 172.828 42.5345 214.946 22.8389 172.828 3.14332 172.828 13.4196 2.00013 13.4196Z" fill="#EB586F" transform="matrix(-0.59566 -0.803237 -0.803278 0.59569 840.195 405.953)"/><rect x="0" y="0" width="155.53" height="24.2726" fill="#FFFFFF" transform="matrix(-0.59566 -0.803237 -0.803278 0.59569 833.772 410.407)"/><text font-family="Rubik,Rubik_MSFontService,sans-serif" font-weight="700" font-size="13" transform="matrix(0.595592 0.803004 -0.803429 0.595487 706.554 273)">B<tspan font-size="11" x="8.99552" y="-0.375215">EHAVIOURAL</tspan><tspan font-size="11" x="82.3652" y="-0.234341">AND</tspan><tspan x="108.406" y="-0.084137">MRI </tspan><tspan font-size="11" x="135.841" y="-0.135704">DATA</tspan></text><path d="M0 11.4195 170.828 11.4195 170.828 0 219.668 22.8389 170.828 45.6779 170.828 34.2584 0 34.2584Z" fill="#FFFFFF" fill-rule="evenodd" transform="matrix(0.601883 0.798585 0.798623 -0.601912 578.643 264.842)"/><path d="M-2.00013 9.41934 168.828 9.41934 168.828-3.14332 224.39 22.8389 168.828 48.8212 168.828 36.2585-2.00013 36.2585ZM0.400026 33.8584 171.228 33.8584 171.228 45.0492 218.724 22.8389 171.228 0.628664 171.228 11.8195 0.400026 11.8195ZM1.20008 12.6195 172.028 12.6195 172.028 1.88599 216.835 22.8389 172.028 43.7919 172.028 33.0583 1.20008 33.0583ZM2.00013 32.2583 172.828 32.2583 172.828 42.5346 214.946 22.8389 172.828 3.14332 172.828 13.4196 2.00013 13.4196Z" fill="#EB586F" transform="matrix(0.601883 0.798585 0.798623 -0.601912 578.643 264.842)"/><rect x="0" y="0" width="155.53" height="24.2726" fill="#FFFFFF" transform="matrix(0.601883 0.798585 0.798623 -0.601912 589.665 256.823)"/><text font-family="Rubik,Rubik_MSFontService,sans-serif" font-weight="700" font-size="13" transform="matrix(0.601815 0.798354 -0.798776 0.601709 594.397 256)">B<tspan font-size="11" x="9.83267" y="0.249368">EHAVIOURAL</tspan><tspan x="82.6742" y="-0.00537491">P</tspan><tspan font-size="11" x="92.3257" y="0.48436">ARADIGMS</tspan></text></g></svg>