<svg width="602" height="191" viewBox="0 0 602 191" fill="none" xmlns="http://www.w3.org/2000/svg">
<path d="M233.622 34.5939H242.474V58.4657H248.516V34.5939H257.367V29.5541H233.622V34.5939ZM267.178 45.9298C267.192 43.1346 268.901 41.4971 271.357 41.4971C273.799 41.4971 275.239 43.0641 275.225 45.7322V58.4657H281.239V44.6593C281.253 39.5772 278.26 36.4997 273.743 36.4997C270.453 36.4997 268.251 38.0525 267.263 40.6077H267.009V29.5541H261.164V58.4657H267.178V45.9298ZM295.853 58.8892C301.218 58.8892 304.832 56.2776 305.679 52.2542L300.117 51.8872C299.51 53.5389 297.957 54.4 295.952 54.4C292.945 54.4 291.04 52.4095 291.04 49.1767V49.1626H305.806V47.5109C305.806 40.1418 301.345 36.4997 295.613 36.4997C289.233 36.4997 285.096 41.0312 285.096 47.7227C285.096 54.5976 289.176 58.8892 295.853 58.8892ZM291.04 45.4357C291.167 42.9652 293.044 40.9889 295.712 40.9889C298.324 40.9889 300.131 42.8523 300.145 45.4357H291.04ZM343.227 29.5541H337.142V47.7368H336.888L324.409 29.5541H319.044V58.4657H325.157V40.2689H325.369L337.947 58.4657H343.227V29.5541ZM358.046 58.8892C363.41 58.8892 367.024 56.2776 367.871 52.2542L362.309 51.8872C361.702 53.5389 360.149 54.4 358.145 54.4C355.138 54.4 353.232 52.4095 353.232 49.1767V49.1626H367.998V47.5109C367.998 40.1418 363.537 36.4997 357.806 36.4997C351.425 36.4997 347.289 41.0312 347.289 47.7227C347.289 54.5976 351.368 58.8892 358.046 58.8892ZM353.232 45.4357C353.359 42.9652 355.237 40.9889 357.905 40.9889C360.516 40.9889 362.323 42.8523 362.337 45.4357H353.232ZM385.828 49.2332C385.842 52.1413 383.852 53.6659 381.692 53.6659C379.419 53.6659 377.951 52.0707 377.937 49.5155V36.782H371.923V50.5884C371.937 55.6564 374.902 58.748 379.264 58.748C382.525 58.748 384.868 57.0681 385.842 54.5271H386.068V58.4657H391.842V36.782H385.828V49.2332ZM396.652 58.4657H402.666V46.198C402.666 43.5299 404.614 41.6947 407.268 41.6947C408.101 41.6947 409.245 41.8359 409.809 42.0194V36.6832C409.273 36.5561 408.525 36.4714 407.918 36.4714C405.49 36.4714 403.499 37.8831 402.708 40.5653H402.483V36.782H396.652V58.4657ZM418.481 58.8751C421.685 58.8751 423.76 57.4775 424.819 55.4588H424.989V58.4657H430.692V43.8405C430.692 38.6737 426.316 36.4997 421.488 36.4997C416.293 36.4997 412.876 38.9842 412.043 42.937L417.605 43.3887C418.015 41.9488 419.299 40.89 421.459 40.89C423.506 40.89 424.678 41.9206 424.678 43.6993V43.784C424.678 45.1816 423.196 45.3651 419.427 45.7322C415.135 46.1274 411.281 47.5674 411.281 52.4095C411.281 56.7011 414.344 58.8751 418.481 58.8751ZM420.203 54.7247C418.354 54.7247 417.027 53.8636 417.027 52.2119C417.027 50.5178 418.424 49.6849 420.542 49.3885C421.855 49.2049 424 48.8944 424.72 48.4144V50.7155C424.72 52.9883 422.843 54.7247 420.203 54.7247ZM441.371 29.5541H435.358V58.4657H441.371V29.5541ZM239.707 110.466L241.852 103.873H252.285L254.431 110.466H260.981L251.014 81.5541H243.137L233.156 110.466H239.707ZM243.405 99.1015L246.963 88.1608H247.189L250.746 99.1015H243.405ZM264.348 110.466H270.362V98.198C270.362 95.5299 272.31 93.6947 274.964 93.6947C275.797 93.6947 276.94 93.8359 277.505 94.0194V88.6832C276.968 88.5561 276.22 88.4714 275.613 88.4714C273.185 88.4714 271.195 89.8831 270.404 92.5653H270.178V88.782H264.348V110.466ZM289.402 110.889C295.176 110.889 298.804 107.501 299.086 102.518H293.411C293.058 104.833 291.534 106.132 289.473 106.132C286.663 106.132 284.842 103.774 284.842 99.6238C284.842 95.5299 286.677 93.1865 289.473 93.1865C291.675 93.1865 293.086 94.6405 293.411 96.8004H299.086C298.832 91.7889 295.035 88.4997 289.374 88.4997C282.795 88.4997 278.729 93.0594 278.729 99.7085C278.729 106.301 282.725 110.889 289.402 110.889ZM308.95 97.9298C308.965 95.1346 310.673 93.4971 313.129 93.4971C315.571 93.4971 317.011 95.0641 316.997 97.7322V110.466H323.011V96.6593C323.025 91.5772 320.032 88.4997 315.515 88.4997C312.226 88.4997 310.023 90.0525 309.035 92.6077H308.781V81.5541H302.937V110.466H308.95V97.9298ZM327.744 110.466H333.758V88.782H327.744V110.466ZM330.765 85.9868C332.558 85.9868 334.026 84.6175 334.026 82.9376C334.026 81.2718 332.558 79.9024 330.765 79.9024C328.986 79.9024 327.518 81.2718 327.518 82.9376C327.518 84.6175 328.986 85.9868 330.765 85.9868ZM350.109 88.782H346.029V83.5869H340.015V88.782H337.05V93.2994H340.015V104.593C339.987 108.842 342.881 110.946 347.243 110.762C348.796 110.706 349.897 110.395 350.504 110.197L349.558 105.722C349.262 105.779 348.626 105.92 348.062 105.92C346.862 105.92 346.029 105.468 346.029 103.802V93.2994H350.109V88.782ZM363.675 110.889C369.039 110.889 372.653 108.278 373.5 104.254L367.938 103.887C367.331 105.539 365.778 106.4 363.774 106.4C360.767 106.4 358.861 104.41 358.861 101.177V101.163H373.627V99.5109C373.627 92.1418 369.166 88.4997 363.435 88.4997C357.054 88.4997 352.918 93.0312 352.918 99.7227C352.918 106.598 356.998 110.889 363.675 110.889ZM358.861 97.4357C358.988 94.9652 360.866 92.9889 363.534 92.9889C366.145 92.9889 367.952 94.8523 367.967 97.4357H358.861ZM387.349 110.889C393.123 110.889 396.751 107.501 397.033 102.518H391.358C391.005 104.833 389.481 106.132 387.42 106.132C384.61 106.132 382.789 103.774 382.789 99.6238C382.789 95.5299 384.625 93.1865 387.42 93.1865C389.622 93.1865 391.034 94.6405 391.358 96.8004H397.033C396.779 91.7889 392.982 88.4997 387.321 88.4997C380.742 88.4997 376.677 93.0594 376.677 99.7085C376.677 106.301 380.672 110.889 387.349 110.889ZM412.417 88.782H408.338V83.5869H402.324V88.782H399.359V93.2994H402.324V104.593C402.296 108.842 405.19 110.946 409.552 110.762C411.105 110.706 412.206 110.395 412.813 110.197L411.867 105.722C411.57 105.779 410.935 105.92 410.37 105.92C409.171 105.92 408.338 105.468 408.338 103.802V93.2994H412.417V88.782ZM430.24 101.233C430.254 104.141 428.264 105.666 426.104 105.666C423.831 105.666 422.363 104.071 422.349 101.516V88.782H416.335V102.588C416.349 107.656 419.314 110.748 423.676 110.748C426.937 110.748 429.28 109.068 430.254 106.527H430.48V110.466H436.254V88.782H430.24V101.233ZM441.064 110.466H447.078V98.198C447.078 95.5299 449.026 93.6947 451.68 93.6947C452.513 93.6947 453.657 93.8359 454.221 94.0194V88.6832C453.685 88.5561 452.937 88.4714 452.33 88.4714C449.902 88.4714 447.911 89.8831 447.121 92.5653H446.895V88.782H441.064V110.466ZM466.203 110.889C471.568 110.889 475.182 108.278 476.029 104.254L470.467 103.887C469.859 105.539 468.307 106.4 466.302 106.4C463.295 106.4 461.389 104.41 461.389 101.177V101.163H476.156V99.5109C476.156 92.1418 471.695 88.4997 465.963 88.4997C459.582 88.4997 455.446 93.0312 455.446 99.7227C455.446 106.598 459.526 110.889 466.203 110.889ZM461.389 97.4357C461.516 94.9652 463.394 92.9889 466.062 92.9889C468.674 92.9889 470.481 94.8523 470.495 97.4357H461.389ZM244.408 161.889C250.986 161.889 255.08 157.386 255.08 150.709C255.08 143.989 250.986 139.5 244.408 139.5C237.829 139.5 233.735 143.989 233.735 150.709C233.735 157.386 237.829 161.889 244.408 161.889ZM244.436 157.231C241.401 157.231 239.848 154.45 239.848 150.666C239.848 146.883 241.401 144.088 244.436 144.088C247.414 144.088 248.967 146.883 248.967 150.666C248.967 154.45 247.414 157.231 244.436 157.231ZM270.651 139.782H266.345V138.328C266.345 136.86 266.938 135.999 268.703 135.999C269.423 135.999 270.157 136.154 270.637 136.309L271.696 131.792C270.947 131.566 269.296 131.199 267.446 131.199C263.367 131.199 260.332 133.5 260.332 138.215V139.782H257.268V144.299H260.332V161.466H266.345V144.299H270.651V139.782ZM309.148 142.676C308.343 135.999 303.29 132.159 296.598 132.159C288.961 132.159 283.13 137.552 283.13 147.01C283.13 156.44 288.862 161.861 296.598 161.861C304.009 161.861 308.485 156.934 309.148 151.612L302.965 151.584C302.386 154.675 299.958 156.454 296.697 156.454C292.306 156.454 289.328 153.193 289.328 147.01C289.328 140.996 292.264 137.566 296.739 137.566C300.085 137.566 302.499 139.5 302.965 142.676H309.148ZM323.216 161.889C329.794 161.889 333.888 157.386 333.888 150.709C333.888 143.989 329.794 139.5 323.216 139.5C316.637 139.5 312.543 143.989 312.543 150.709C312.543 157.386 316.637 161.889 323.216 161.889ZM323.244 157.231C320.209 157.231 318.656 154.45 318.656 150.666C318.656 146.883 320.209 144.088 323.244 144.088C326.223 144.088 327.775 146.883 327.775 150.666C327.775 154.45 326.223 157.231 323.244 157.231ZM343.812 148.93C343.826 146.135 345.492 144.497 347.92 144.497C350.334 144.497 351.788 146.078 351.774 148.732V161.466H357.788V147.659C357.788 142.605 354.824 139.5 350.306 139.5C347.088 139.5 344.758 141.081 343.784 143.608H343.53V139.782H337.799V161.466H343.812V148.93ZM380.569 145.965C380.033 141.97 376.814 139.5 371.337 139.5C365.789 139.5 362.133 142.069 362.147 146.248C362.133 149.494 364.18 151.598 368.415 152.445L372.17 153.193C374.062 153.574 374.923 154.266 374.951 155.353C374.923 156.638 373.525 157.555 371.422 157.555C369.276 157.555 367.85 156.638 367.483 154.873L361.568 155.184C362.133 159.334 365.662 161.889 371.408 161.889C377.026 161.889 381.049 159.023 381.064 154.746C381.049 151.612 379.002 149.734 374.796 148.873L370.871 148.083C368.852 147.645 368.104 146.953 368.118 145.909C368.104 144.61 369.572 143.763 371.436 143.763C373.525 143.763 374.767 144.906 375.064 146.304L380.569 145.965ZM394.648 161.889C400.422 161.889 404.05 158.501 404.332 153.518H398.657C398.304 155.833 396.779 157.132 394.718 157.132C391.909 157.132 390.088 154.774 390.088 150.624C390.088 146.53 391.923 144.186 394.718 144.186C396.92 144.186 398.332 145.641 398.657 147.8H404.332C404.078 142.789 400.28 139.5 394.619 139.5C388.041 139.5 383.975 144.059 383.975 150.709C383.975 157.301 387.97 161.889 394.648 161.889ZM408.182 161.466H414.196V139.782H408.182V161.466ZM411.203 136.987C412.996 136.987 414.464 135.617 414.464 133.938C414.464 132.272 412.996 130.902 411.203 130.902C409.425 130.902 407.956 132.272 407.956 133.938C407.956 135.617 409.425 136.987 411.203 136.987ZM428.811 161.889C435.389 161.889 439.483 157.386 439.483 150.709C439.483 143.989 435.389 139.5 428.811 139.5C422.232 139.5 418.138 143.989 418.138 150.709C418.138 157.386 422.232 161.889 428.811 161.889ZM428.839 157.231C425.804 157.231 424.251 154.45 424.251 150.666C424.251 146.883 425.804 144.088 428.839 144.088C431.818 144.088 433.371 146.883 433.371 150.666C433.371 154.45 431.818 157.231 428.839 157.231ZM457.299 152.233C457.313 155.141 455.323 156.666 453.163 156.666C450.89 156.666 449.422 155.071 449.407 152.516V139.782H443.394V153.588C443.408 158.656 446.372 161.748 450.734 161.748C453.996 161.748 456.339 160.068 457.313 157.527H457.539V161.466H463.313V139.782H457.299V152.233ZM486.165 145.965C485.628 141.97 482.409 139.5 476.932 139.5C471.384 139.5 467.728 142.069 467.742 146.248C467.728 149.494 469.775 151.598 474.01 152.445L477.765 153.193C479.657 153.574 480.518 154.266 480.546 155.353C480.518 156.638 479.12 157.555 477.017 157.555C474.871 157.555 473.445 156.638 473.078 154.873L467.163 155.184C467.728 159.334 471.257 161.889 477.003 161.889C482.621 161.889 486.645 159.023 486.659 154.746C486.645 151.612 484.598 149.734 480.391 148.873L476.466 148.083C474.448 147.645 473.699 146.953 473.713 145.909C473.699 144.61 475.167 143.763 477.031 143.763C479.12 143.763 480.363 144.906 480.659 146.304L486.165 145.965ZM496.459 148.93C496.474 146.135 498.139 144.497 500.567 144.497C502.981 144.497 504.436 146.078 504.421 148.732V161.466H510.435V147.659C510.435 142.605 507.471 139.5 502.953 139.5C499.735 139.5 497.405 141.081 496.431 143.608H496.177V139.782H490.446V161.466H496.459V148.93ZM525.057 161.889C530.421 161.889 534.035 159.278 534.882 155.254L529.32 154.887C528.713 156.539 527.16 157.4 525.156 157.4C522.149 157.4 520.243 155.41 520.243 152.177V152.163H535.009V150.511C535.009 143.142 530.548 139.5 524.817 139.5C518.436 139.5 514.3 144.031 514.3 150.723C514.3 157.598 518.38 161.889 525.057 161.889ZM520.243 148.436C520.37 145.965 522.248 143.989 524.916 143.989C527.527 143.989 529.334 145.852 529.349 148.436H520.243ZM556.975 145.965C556.439 141.97 553.22 139.5 547.743 139.5C542.195 139.5 538.539 142.069 538.553 146.248C538.539 149.494 540.586 151.598 544.821 152.445L548.576 153.193C550.468 153.574 551.329 154.266 551.357 155.353C551.329 156.638 549.931 157.555 547.828 157.555C545.682 157.555 544.256 156.638 543.889 154.873L537.974 155.184C538.539 159.334 542.068 161.889 547.814 161.889C553.432 161.889 557.455 159.023 557.47 154.746C557.455 151.612 555.408 149.734 551.202 148.873L547.277 148.083C545.258 147.645 544.51 146.953 544.524 145.909C544.51 144.61 545.978 143.763 547.842 143.763C549.931 143.763 551.173 144.906 551.47 146.304L556.975 145.965ZM579.298 145.965C578.762 141.97 575.543 139.5 570.065 139.5C564.517 139.5 560.861 142.069 560.875 146.248C560.861 149.494 562.908 151.598 567.143 152.445L570.898 153.193C572.79 153.574 573.651 154.266 573.679 155.353C573.651 156.638 572.254 157.555 570.15 157.555C568.004 157.555 566.579 156.638 566.211 154.873L560.296 155.184C560.861 159.334 564.39 161.889 570.136 161.889C575.755 161.889 579.778 159.023 579.792 154.746C579.778 151.612 577.731 149.734 573.524 148.873L569.6 148.083C567.581 147.645 566.833 146.953 566.847 145.909C566.833 144.61 568.301 143.763 570.164 143.763C572.254 143.763 573.496 144.906 573.792 146.304L579.298 145.965Z" fill="#100F0F"/>
<path d="M20.0716 107.547C20.0716 107.547 7.55894 110.522 3.8842 99.6726C0.209463 88.8234 25.1111 82.8164 22.2579 69.2248C20.3701 60.2317 -3.91386 88.9009 7.55866 50.851C24.3199 -4.73953 74.7539 42.9766 44.831 44.0265C14.9081 45.0765 45.5775 17.4545 57.9551 13.0537C71.9018 8.09502 101.002 5.70427 88.4029 35.6272C75.8038 65.55 59.53 2.55443 113.601 13.0537C167.672 23.553 149.299 38.011 138.274 34.5772C122 29.5083 152.448 12.5287 170.297 44.0265C188.146 75.5243 177.122 84.9736 172.397 79.724C159.196 65.0563 204.779 68.6117 183.946 109.647C170.932 135.282 150.528 121.709 144.685 108.751C139.171 96.5228 139.447 89.728 126.725 85.0412C99.5207 75.0188 95.0955 98.3788 82.1033 96.5228C56.3801 92.8481 76.9661 58.6693 92.6026 50.851C109.401 42.4516 142.999 60.3004 130.925 67.1249C114.359 76.4884 104.152 58.2005 72.129 56.6256C54.1788 55.7429 33.2817 64.5001 35.9066 92.3231C37.0773 104.733 61.6297 124.346 66.3544 107.547C70.8174 91.6785 46.9308 96.5228 36.9566 109.647C21.2276 130.343 69.189 138.737 107.302 120.146C128.825 109.647 129.8 102.822 126.725 98.6227C120.81 90.5426 101.002 93.373 97.8523 109.647C93.5688 131.779 116.07 132.745 128.825 154.269C137.536 168.968 133.025 179.817 126.725 178.417" stroke="#100F0F" stroke-width="5.51388" stroke-linecap="round"/>
</svg>
